<svg xmlns="http://www.w3.org/2000/svg" viewBox="0 0 109.5 124.5">
  <path d="M74.7 14.8s-.3 0-.8.1c-.1-.3-.3-.7-.5-1.1-1.6-3-4-4.6-6.8-4.6h-.2c-.2-.2-.3-.4-.5-.6C65.1 7.1 63.3 6.5 61.2 6.6c-4.2.1-8.3 3.1-11.7 8.4-2.4 3.7-4.2 8.3-4.7 11.9l-8 2.5c-2.3.7-2.4.8-2.7 3-.2 1.7-6.5 50-6.5 50l52 9.7 22.3-5.6S74.7 15.1 74.7 14.8zm-13.9-5.9c-1.6.1-3.2.7-4.7 1.8.1 0 .2.1.3.1 2.6 1.4 3.9 4.4 4.5 7.1.8-.2 1.5-.5 2.3-.7-1-3.4-2.3-7.2-2.4-8.3zm-4.4 20.8c-.8-4.5-2.3-8.3-4.9-10.9-1.5-1.4-3.2-2.3-5.1-2.4-.2.4-.5.8-.7 1.2-2.2 4.8-3.3 10.4-3.7 14.4l14.4-2.3zm-18 2.9c.4-3.8 1.5-9.5 3.8-14.6.1-.1.1-.2.2-.4-2.2.8-4 2.9-5.6 5.8-.9 1.7-2.7 5.5-3.5 10.5l5.1-1.3zm16.7-22.7c-1.7.1-3.1.8-4.3 2l-.2.2c-.9 1-1.7 2.2-2.4 3.5.4-.1.8-.2 1.2-.2 2.3-.1 4.3.7 6 2.1 2.4 2.2 4 5.8 5 10.1l8.3-1.3c-.8-4.5-4-14.7-13.6-16.4z" fill="#96BF48"/>
  <path d="M73.9 14.9c-.5.1-.8.1-.8.1L61.5 17c-.9-4.3-2.5-7.9-5-10.1-1.7-1.4-3.7-2.2-6-2.1-.4 0-.8.1-1.2.2.7-1.3 1.5-2.5 2.4-3.5.1-.1.2-.2.3-.3 1.2-1.2 2.6-1.9 4.3-2C64.9 0 73.1 10.4 73.9 14.9z" fill="#5E8E3E"/>
  <path d="M61.2 6.6c-.3 0-.5 0-.8.1.4.5.8 1.1 1.1 1.7 2.6 4.2 3.9 9.4 4.4 13.3l5.8-1.8c-.8-4.5-5.1-14.9-10.5-13.3z" fill="#5E8E3E"/>
  <path d="M44.8 85.8l5.7 1.1-2.3-12.8-3.4 11.7zM67.5 19.6c-.5-2.7-1.9-5.7-4.5-7.1-.1-.1-.2-.1-.3-.1-1.2-.6-2.7-.8-4.4-.7 5.4-1.6 9.7 8.7 10.5 13.2l-1.3.4c-.6-3.7-1.9-7.5-2.4-8.3-.4-.9-.9-1.7-1.5-2.4.8-.2 1.5-.5 2.3-.7.8 2.6 1.8 5.6 1.6 5.7z" fill="#5E8E3E"/>
  <path d="M27.5 92.2l52 9.7-1.4-7.6-50.6 9.9z" fill="#959595"/>
  <path d="M79.5 101.9L27.5 92.2 22 124.5l57.5-10.6V101.9z" fill="#BEBEBE"/>
  <path d="M27.5 92.2l-.8 4.4 51.4 9.5.8-4.3-51.4-9.6z" fill="#FFF"/>
  <path d="M27.5 92.2l52 9.7 22.3-5.6-74.3-4.1z" fill="#E0E0E0"/>
  <g>
    <path d="M74.8 45.2c-3.6-1.9-5.4-3.6-5.4-5.8 0-2.8 2.5-4.7 6.5-4.7 4.7 0 8.8 1.9 8.8 1.9l3.3-10.1s-3-2.3-11.9-2.3c-12.4 0-21 7.1-21 17.1 0 5.7 4 10 9.4 13.1 4.3 2.4 5.9 4.2 5.9 6.8 0 2.7-2.2 4.8-6.2 4.8-6 0-11.6-3.1-11.6-3.1l-3.5 10.1s5.2 3.5 13.9 3.5c12.8 0 22-6.3 22-17.6 0-6.2-3.6-11-10.2-13.7z" fill="#FFF"/>
  </g>
</svg>
