<svg width="120" height="48" viewBox="0 0 120 48" fill="none" xmlns="http://www.w3.org/2000/svg">
  <rect width="120" height="48" rx="12" fill="#111111"/>
  <rect x="10" y="10" width="28" height="28" rx="8" fill="#25F4EE"/>
  <path d="M23.2 16H26.4V27.2C26.4 30.4 23.9 33 20.8 33C18 33 15.8 30.8 15.8 28C15.8 25.2 18 23 20.8 23C21.4 23 22 23.1 22.5 23.3V26.3C22 25.9 21.4 25.7 20.8 25.7C19.5 25.7 18.5 26.7 18.5 28C18.5 29.3 19.5 30.3 20.8 30.3C22.1 30.3 23.2 29.2 23.2 27.9V16Z" fill="#111111"/>
  <path d="M26.4 19.5C27.4 21.1 28.8 22.3 30.7 22.8V25.7C29 25.5 27.5 24.8 26.4 23.7V19.5Z" fill="#111111"/>
  <text x="48" y="21" fill="#FFFFFF" font-family="Arial, sans-serif" font-size="13" font-weight="700">TikTok</text>
  <text x="48" y="34" fill="#D1D5DB" font-family="Arial, sans-serif" font-size="11" font-weight="600">SHOP</text>
</svg>
